name rise34.3697peak60.0498fall86.3158.mot
datacolumns 19
datarows 26
range 11.71995800000000 11.76163900000000
endheader
time	ground_force1_vx	ground_force1_vy	ground_force1_vz	ground_force1_px	ground_force1_py	ground_force1_pz	ground_force2_vx	ground_force2_vy	ground_force2_vz	ground_force2_px	ground_force2_py	ground_force2_pz	ground_torque1_x	ground_torque1_y	ground_torque1_z	ground_torque2_x	ground_torque2_y	ground_torque2_z	
11.71995800000000	-43.55753700000000	818.45067300000005	63.62745500000000	0.23800500000000	0.00000000000000	0.13075000000000	-1.81770400000000	3.70463400000000	1.19836000000000	0.00000000000000	0.00000000000000	0.00000000000000	0.00000000000000	38.89551800000000	0.00000000000000	0.00000000000000	0.51782700000000	0.00000000000000	
11.72162100000000	-43.74742300000000	815.73098400000003	63.33446700000000	0.23707900000000	0.00000000000000	0.13066700000000	-2.91233500000000	7.18428500000000	1.98953400000000	0.00000000000000	0.00000000000000	0.00000000000000	0.00000000000000	38.68206600000000	0.00000000000000	0.00000000000000	0.86777100000000	0.00000000000000	
11.72328500000000	-43.94372500000000	812.88659099999995	63.01212900000000	0.23614900000000	0.00000000000000	0.13057800000000	-4.15125200000000	11.39563800000000	2.89953400000000	0.00000000000000	0.00000000000000	0.00000000000000	0.00000000000000	38.45910500000000	0.00000000000000	0.00000000000000	1.27196300000000	0.00000000000000	
11.72495300000000	-44.14698800000000	809.91797899999995	62.66069800000000	0.23521400000000	0.00000000000000	0.13048500000000	-5.49713200000000	16.29620000000000	3.90524000000000	0.00000000000000	0.00000000000000	0.00000000000000	0.00000000000000	38.22704800000000	0.00000000000000	0.00000000000000	1.72067100000000	0.00000000000000	
11.72661800000000	-44.35773400000000	806.82566499999996	62.28048300000000	0.23427600000000	0.00000000000000	0.13038700000000	-6.90326300000000	21.81154300000000	4.97653400000000	0.00000000000000	0.00000000000000	0.00000000000000	0.00000000000000	37.98631700000000	0.00000000000000	0.00000000000000	2.20106500000000	0.00000000000000	
11.72829300000000	-44.57645500000000	803.61018600000000	61.87184400000000	0.23333500000000	0.00000000000000	0.13028300000000	-8.31659500000000	27.84097900000000	6.07828300000000	0.42810600000000	0.00000000000000	-0.06534100000000	0.00000000000000	37.73734700000000	0.00000000000000	0.00000000000000	4.75679600000000	0.00000000000000	
11.72996000000000	-44.80361200000000	800.27209500000004	61.43519000000000	0.23239200000000	0.00000000000000	0.13017500000000	-9.68160400000000	34.26608800000000	7.17292200000000	0.42830900000000	0.00000000000000	-0.06691200000000	0.00000000000000	37.48057800000000	0.00000000000000	0.00000000000000	5.61988700000000	0.00000000000000	
11.73162000000000	-45.03963000000000	796.81195900000000	60.97098000000000	0.23144600000000	0.00000000000000	0.13006100000000	-10.94446500000000	40.96096700000000	8.22330200000000	0.42890000000000	0.00000000000000	-0.06830600000000	0.00000000000000	37.21645900000000	0.00000000000000	0.00000000000000	6.45659900000000	0.00000000000000	
11.73329000000000	-45.28489200000000	793.23034700000005	60.47971600000000	0.23049800000000	0.00000000000000	0.12994200000000	-12.05696200000000	47.80273300000000	9.19541900000000	0.42980500000000	0.00000000000000	-0.06955300000000	0.00000000000000	36.94543900000000	0.00000000000000	0.00000000000000	7.24208700000000	0.00000000000000	
11.73495500000000	-45.53973800000000	789.52782800000000	59.96194500000000	0.22954900000000	0.00000000000000	0.12981700000000	-12.97964800000000	54.68088800000000	10.06067700000000	0.43096100000000	0.00000000000000	-0.07067500000000	0.00000000000000	36.66797200000000	0.00000000000000	0.00000000000000	7.95518200000000	0.00000000000000	
11.73662200000000	-45.80445800000000	785.70497000000000	59.41825600000000	0.22859900000000	0.00000000000000	0.12968800000000	-13.68394600000000	61.50454000000000	10.79744300000000	0.43232100000000	0.00000000000000	-0.07169100000000	0.00000000000000	36.38450800000000	0.00000000000000	0.00000000000000	8.57958100000000	0.00000000000000	
11.73828500000000	-46.07929100000000	781.76232900000002	58.84927700000000	0.22764900000000	0.00000000000000	0.12955300000000	-14.15307200000000	68.20699500000001	11.39183300000000	0.43384400000000	0.00000000000000	-0.07261400000000	0.00000000000000	36.09549600000000	0.00000000000000	0.00000000000000	9.10448100000000	0.00000000000000	
11.73995800000000	-46.36441900000000	777.70044800000005	58.25567500000000	0.22669900000000	0.00000000000000	0.12941300000000	-14.38186800000000	74.74762600000000	11.83773600000000	0.43549900000000	0.00000000000000	-0.07345800000000	0.00000000000000	35.80138100000000	0.00000000000000	0.00000000000000	9.52467700000000	0.00000000000000	
11.74162700000000	-46.65996200000000	773.51985400000001	57.63815100000000	0.22574900000000	0.00000000000000	0.12926700000000	-14.37570700000000	81.11130000000000	12.13620800000000	0.43725800000000	0.00000000000000	-0.07423300000000	0.00000000000000	35.50259900000000	0.00000000000000	0.00000000000000	9.84018800000000	0.00000000000000	
11.74329000000000	-46.96597800000000	769.22105599999998	56.99744000000000	0.22479900000000	0.00000000000000	0.12911700000000	-14.14872000000000	87.30578800000001	12.29437200000000	0.43909900000000	0.00000000000000	-0.07494700000000	0.00000000000000	35.19957700000000	0.00000000000000	0.00000000000000	10.05551900000000	0.00000000000000	
11.74495200000000	-47.28245500000000	764.80453599999998	56.33430700000000	0.22385200000000	0.00000000000000	0.12896100000000	-13.72160300000000	93.35773600000000	12.32401500000000	0.44100500000000	0.00000000000000	-0.07560800000000	0.00000000000000	34.89273200000000	0.00000000000000	0.00000000000000	10.17867400000000	0.00000000000000	
11.74661900000000	-47.60931000000000	760.27075500000001	55.64954700000000	0.22290500000000	0.00000000000000	0.12880000000000	-13.11926700000000	99.30777300000000	12.24003500000000	0.44296000000000	0.00000000000000	-0.07622200000000	0.00000000000000	34.58246900000000	0.00000000000000	0.00000000000000	10.22005300000000	0.00000000000000	
11.74829700000000	-47.94638600000000	755.62014299999998	54.94398100000000	0.22196100000000	0.00000000000000	0.12863400000000	-12.36853600000000	105.20531400000000	12.05891400000000	0.44495000000000	0.00000000000000	-0.07679400000000	0.00000000000000	34.26917500000000	0.00000000000000	0.00000000000000	10.19133700000000	0.00000000000000	
11.74995100000000	-48.29344800000000	750.85310400000003	54.21845200000000	0.22102000000000	0.00000000000000	0.12846300000000	-11.49609300000000	111.10353800000000	11.79731500000000	0.44696500000000	0.00000000000000	-0.07732800000000	0.00000000000000	33.95322400000000	0.00000000000000	0.00000000000000	10.10445100000000	0.00000000000000	
11.75161800000000	-48.65017800000000	745.97001000000000	53.47382900000000	0.22008200000000	0.00000000000000	0.12828600000000	-10.52677700000000	117.05489500000000	11.47090600000000	0.44899600000000	0.00000000000000	-0.07782900000000	0.00000000000000	33.63497000000000	0.00000000000000	0.00000000000000	9.97068000000000	0.00000000000000	
11.75329200000000	-49.01617900000000	740.97120099999995	52.71099500000000	0.21914700000000	0.00000000000000	0.12810500000000	-9.48230500000000	123.10742399999999	11.09345900000000	0.45103400000000	0.00000000000000	-0.07830000000000	0.00000000000000	33.31474800000000	0.00000000000000	0.00000000000000	9.79997700000000	0.00000000000000	
11.75495100000000	-49.39096400000000	735.85698900000000	51.93085400000000	0.21821700000000	0.00000000000000	0.12791900000000	-8.38046500000000	129.30200800000000	10.67625300000000	0.45307400000000	0.00000000000000	-0.07874300000000	0.00000000000000	32.99287100000000	0.00000000000000	0.00000000000000	9.60049200000000	0.00000000000000	
11.75661900000000	-49.77396300000000	730.62765300000001	51.13432500000000	0.21729100000000	0.00000000000000	0.12772900000000	-7.23472400000000	135.67061500000000	10.22776600000000	0.45511000000000	0.00000000000000	-0.07916200000000	0.00000000000000	32.66963000000000	0.00000000000000	0.00000000000000	9.37830700000000	0.00000000000000	
11.75829100000000	-50.16451300000000	725.28344100000004	50.32233600000000	0.21637000000000	0.00000000000000	0.12753300000000	-6.05424000000000	142.23548199999999	9.75362500000000	0.45713500000000	0.00000000000000	-0.07955900000000	0.00000000000000	32.34529300000000	0.00000000000000	0.00000000000000	9.13738000000000	0.00000000000000	
11.75995800000000	-50.56186400000000	719.82457599999998	49.49583100000000	0.21545500000000	0.00000000000000	0.12733300000000	-4.84418300000000	149.00913600000001	9.25679000000000	0.45914800000000	0.00000000000000	-0.07993400000000	0.00000000000000	32.02010300000000	0.00000000000000	0.00000000000000	8.87964900000000	0.00000000000000	
11.76163900000000	-50.96517600000000	714.25125300000002	48.65575700000000	0.21454600000000	0.00000000000000	0.12712900000000	-3.60629100000000	155.99507900000000	8.73788400000000	0.46114400000000	0.00000000000000	-0.08029100000000	0.00000000000000	31.69427600000000	0.00000000000000	0.00000000000000	8.60527100000000	0.00000000000000	
